<?xml version="1.0" encoding="UTF-8" standalone="no"?>
<svg
   viewBox="0 0 28 28"
   class="a8c37x1j ms05siws l3qrxjdp b7h9ocf4 py1f6qlh"
   fill="currentColor"
   height="28"
   width="28"
   version="1.1"
   id="svg4"
   sodipodi:docname="games.svg"
   inkscape:version="1.1.2 (0a00cf5339, 2022-02-04)"
   xmlns:inkscape="http://www.inkscape.org/namespaces/inkscape"
   xmlns:sodipodi="http://sodipodi.sourceforge.net/DTD/sodipodi-0.dtd"
   xmlns="http://www.w3.org/2000/svg"
   xmlns:svg="http://www.w3.org/2000/svg">
  <defs
     id="defs8" />
  <sodipodi:namedview
     id="namedview6"
     pagecolor="#ffffff"
     bordercolor="#111111"
     borderopacity="1"
     inkscape:pageshadow="0"
     inkscape:pageopacity="0"
     inkscape:pagecheckerboard="1"
     showgrid="false"
     inkscape:zoom="9.2857145"
     inkscape:cx="15.723077"
     inkscape:cy="6.1923075"
     inkscape:window-width="1366"
     inkscape:window-height="691"
     inkscape:window-x="0"
     inkscape:window-y="0"
     inkscape:window-maximized="1"
     inkscape:current-layer="svg4" />
  <path
     d="M23.5 9.5H10.25a.75.75 0 00-.75.75v7c0 .414.336.75.75.75H17v5.5H4.5v-19h19v5zm0 14h-5v-6.25a.75.75 0 00-.75-.75H11V11h12.5v12.5zm1.5.25V4.25C25 3.561 24.439 3 23.75 3H4.25C3.561 3 3 3.561 3 4.25v19.5c0 .689.561 1.25 1.25 1.25h19.5c.689 0 1.25-.561 1.25-1.25z"
     id="path2"
     style="fill:#65666c;fill-opacity:1" />
</svg>
