<?xml version="1.0" encoding="UTF-8" standalone="no"?>
<svg
   viewBox="0 0 28 28"
   alt=""
   class="a8c37x1j ms05siws l3qrxjdp b7h9ocf4 rs22bh7c"
   fill="currentColor"
   height="20"
   width="20"
   version="1.1"
   id="svg4"
   sodipodi:docname="notif_rounded.svg"
   inkscape:version="1.1.2 (0a00cf5339, 2022-02-04)"
   xmlns:inkscape="http://www.inkscape.org/namespaces/inkscape"
   xmlns:sodipodi="http://sodipodi.sourceforge.net/DTD/sodipodi-0.dtd"
   xmlns="http://www.w3.org/2000/svg"
   xmlns:svg="http://www.w3.org/2000/svg">
  <defs
     id="defs8" />
  <sodipodi:namedview
     id="namedview6"
     pagecolor="#ffffff"
     bordercolor="#111111"
     borderopacity="1"
     inkscape:pageshadow="0"
     inkscape:pageopacity="0"
     inkscape:pagecheckerboard="1"
     showgrid="false"
     inkscape:zoom="13"
     inkscape:cx="8.2307692"
     inkscape:cy="11.423077"
     inkscape:window-width="1366"
     inkscape:window-height="691"
     inkscape:window-x="0"
     inkscape:window-y="0"
     inkscape:window-maximized="1"
     inkscape:current-layer="svg4" />
  <path
     d="M7.847 23.488C9.207 23.488 11.443 23.363 14.467 22.806 13.944 24.228 12.581 25.247 10.98 25.247 9.649 25.247 8.483 24.542 7.825 23.488L7.847 23.488ZM24.923 15.73C25.17 17.002 24.278 18.127 22.27 19.076 21.17 19.595 18.724 20.583 14.684 21.369 11.568 21.974 9.285 22.113 7.848 22.113 7.421 22.113 7.068 22.101 6.79 22.085 4.574 21.958 3.324 21.248 3.077 19.976 2.702 18.049 3.295 17.305 4.278 16.073L4.537 15.748C5.2 14.907 5.459 14.081 5.035 11.902 4.086 7.022 6.284 3.687 11.064 2.753 15.846 1.83 19.134 4.096 20.083 8.977 20.506 11.156 21.056 11.824 21.986 12.355L21.986 12.356 22.348 12.561C23.72 13.335 24.548 13.802 24.923 15.73Z"
     id="path2" />
</svg>
