<?xml version="1.0" encoding="UTF-8" standalone="no"?>
<!-- Created with Inkscape (http://www.inkscape.org/) -->

<svg
   width="30"
   height="30"
   viewBox="0 0 7.9374998 7.9375002"
   version="1.1"
   id="svg5"
   inkscape:version="1.1.2 (0a00cf5339, 2022-02-04)"
   sodipodi:docname="profiles.svg"
   xmlns:inkscape="http://www.inkscape.org/namespaces/inkscape"
   xmlns:sodipodi="http://sodipodi.sourceforge.net/DTD/sodipodi-0.dtd"
   xmlns="http://www.w3.org/2000/svg"
   xmlns:svg="http://www.w3.org/2000/svg">
  <sodipodi:namedview
     id="namedview7"
     pagecolor="#ffffff"
     bordercolor="#111111"
     borderopacity="1"
     inkscape:pageshadow="0"
     inkscape:pageopacity="0"
     inkscape:pagecheckerboard="1"
     inkscape:document-units="mm"
     showgrid="false"
     units="px"
     width="30px"
     inkscape:zoom="10.482005"
     inkscape:cx="10.73268"
     inkscape:cy="16.265972"
     inkscape:window-width="1366"
     inkscape:window-height="691"
     inkscape:window-x="0"
     inkscape:window-y="0"
     inkscape:window-maximized="1"
     inkscape:current-layer="layer1" />
  <defs
     id="defs2" />
  <g
     inkscape:label="Calque 1"
     inkscape:groupmode="layer"
     id="layer1">
    <path
       id="path846"
       style="fill:#1a1a1a;stroke-width:0.204289;stroke-linecap:square;paint-order:stroke fill markers"
       d="M 6.9327592,5.9350381 A 4.4516137,4.4688767 0 0 0 6.8934852,5.8998981 4.4516137,4.4688767 0 0 0 6.8149372,5.8332351 4.4516137,4.4688767 0 0 0 6.7353552,5.7681231 4.4516137,4.4688767 0 0 0 6.6537062,5.7050781 4.4516137,4.4688767 0 0 0 6.5710242,5.6435831 4.4516137,4.4688767 0 0 0 6.4867912,5.5841551 4.4516137,4.4688767 0 0 0 6.4015252,5.5267941 4.4516137,4.4688767 0 0 0 6.3147092,5.4715001 4.4516137,4.4688767 0 0 0 6.2263422,5.4182731 4.4516137,4.4688767 0 0 0 6.1374592,5.3671131 4.4516137,4.4688767 0 0 0 6.0470252,5.3180201 4.4516137,4.4688767 0 0 0 5.9555582,5.2709941 4.4516137,4.4688767 0 0 0 5.8630572,5.2260361 4.4516137,4.4688767 0 0 0 5.7690062,5.1831441 4.4516137,4.4688767 0 0 0 5.6749552,5.1423201 4.4516137,4.4688767 0 0 0 5.5793542,5.1040791 4.4516137,4.4688767 0 0 0 5.4827192,5.0679061 4.4516137,4.4688767 0 0 0 5.3860842,5.0337991 4.4516137,4.4688767 0 0 0 5.2878992,5.0022771 4.4516137,4.4688767 0 0 0 5.1891972,4.9728211 4.4516137,4.4688767 0 0 0 5.0899782,4.9459491 4.4516137,4.4688767 0 0 0 4.9902422,4.9211441 4.4516137,4.4688767 0 0 0 4.88999,4.8984061 4.4516137,4.4688767 0 0 0 4.7892211,4.8782531 4.4516137,4.4688767 0 0 0 4.6879351,4.8606821 4.4516137,4.4688767 0 0 0 4.5861325,4.8451801 4.4516137,4.4688767 0 0 0 4.4843301,4.8322601 4.4516137,4.4688767 0 0 0 4.3820107,4.8214071 4.4516137,4.4688767 0 0 0 4.2791745,4.8131371 4.4516137,4.4688767 0 0 0 4.1768554,4.8069371 4.4516137,4.4688767 0 0 0 4.0740193,4.8033171 4.4516137,4.4688767 0 0 0 3.9711831,4.8022871 4.4516137,4.4688767 0 0 0 3.6673256,4.8126221 4.4516137,4.4688767 0 0 0 3.3650185,4.8441451 4.4516137,4.4688767 0 0 0 3.0652953,4.8958221 4.4516137,4.4688767 0 0 0 2.7702227,4.9681691 4.4516137,4.4688767 0 0 0 2.480318,5.0601531 4.4516137,4.4688767 0 0 0 2.1976479,5.172291 4.4516137,4.4688767 0 0 0 1.9232461,5.3035489 4.4516137,4.4688767 0 0 0 1.658146,5.452894 4.4516137,4.4688767 0 0 0 1.4038979,5.6203255 4.4516137,4.4688767 0 0 0 1.1615355,5.8048105 4.4516137,4.4688767 0 0 0 1.0044391,5.9422697 3.6483189,3.6483189 0 0 0 3.9644651,7.4625904 3.6483189,3.6483189 0 0 0 6.9327593,5.935035 Z" />
    <path
       id="path1239"
       style="fill:#b3b3b3;stroke-width:0.204289;stroke-linecap:square;paint-order:stroke fill markers"
       d="M 3.9644662,0.16587577 A 3.6483189,3.6483189 0 0 0 0.31611014,3.813715 3.6483189,3.6483189 0 0 0 1.0044402,5.9422673 4.4516137,4.4688767 0 0 1 1.1615366,5.8048081 4.4516137,4.4688767 0 0 1 1.403899,5.6203231 4.4516137,4.4688767 0 0 1 1.6581471,5.4528916 4.4516137,4.4688767 0 0 1 1.9232472,5.3035465 4.4516137,4.4688767 0 0 1 2.197649,5.1722885 4.4516137,4.4688767 0 0 1 2.4803191,5.0601507 4.4516137,4.4688767 0 0 1 2.7702238,4.9681665 4.4516137,4.4688767 0 0 1 3.0652964,4.8958196 4.4516137,4.4688767 0 0 1 3.3650196,4.844143 4.4516137,4.4688767 0 0 1 3.6673267,4.812621 4.4516137,4.4688767 0 0 1 3.9711842,4.802286 a 4.4516137,4.4688767 0 0 1 0.1028362,0.00103 4.4516137,4.4688767 0 0 1 0.1028361,0.00362 4.4516137,4.4688767 0 0 1 0.1023191,0.0062 4.4516137,4.4688767 0 0 1 0.1028362,0.00827 4.4516137,4.4688767 0 0 1 0.1023194,0.010853 4.4516137,4.4688767 0 0 1 0.1018024,0.01292 4.4516137,4.4688767 0 0 1 0.1018026,0.015502 4.4516137,4.4688767 0 0 1 0.101286,0.017571 4.4516137,4.4688767 0 0 1 0.1007689,0.020153 4.4516137,4.4688767 0 0 1 0.1002522,0.022738 4.4516137,4.4688767 0 0 1 0.099735,0.024805 4.4516137,4.4688767 0 0 1 0.099219,0.026872 4.4516137,4.4688767 0 0 1 0.098702,0.029456 4.4516137,4.4688767 0 0 1 0.098185,0.031522 4.4516137,4.4688767 0 0 1 0.096635,0.034107 4.4516137,4.4688767 0 0 1 0.096635,0.036173 4.4516137,4.4688767 0 0 1 0.095601,0.038241 4.4516137,4.4688767 0 0 1 0.094051,0.040824 4.4516137,4.4688767 0 0 1 0.094051,0.042892 4.4516137,4.4688767 0 0 1 0.092501,0.044958 4.4516137,4.4688767 0 0 1 0.091467,0.047025 4.4516137,4.4688767 0 0 1 0.090434,0.049093 4.4516137,4.4688767 0 0 1 0.088883,0.05116 4.4516137,4.4688767 0 0 1 0.088367,0.053227 4.4516137,4.4688767 0 0 1 0.086816,0.055294 4.4516137,4.4688767 0 0 1 0.085266,0.057361 4.4516137,4.4688767 0 0 1 0.084233,0.059428 4.4516137,4.4688767 0 0 1 0.082682,0.061495 4.4516137,4.4688767 0 0 1 0.081649,0.063045 4.4516137,4.4688767 0 0 1 0.079582,0.065112 4.4516137,4.4688767 0 0 1 0.078548,0.066662 4.4516137,4.4688767 0 0 1 0.039274,0.03514 3.6483189,3.6483189 0 0 0 0.679545,-2.1213175 3.6483189,3.6483189 0 0 0 -3.6478392,-3.64784033 z" />
    <ellipse
       style="fill:#1a1a1a;stroke-width:0.271727;stroke-linecap:square;paint-order:stroke fill markers"
       id="path1419"
       cx="3.8778496"
       cy="2.7554975"
       rx="1.4536493"
       ry="1.4426947" />
  </g>
</svg>
