<?xml version="1.0" encoding="UTF-8" standalone="no"?>
<!-- Created with Inkscape (http://www.inkscape.org/) -->

<svg
   width="28"
   height="28"
   viewBox="0 0 7.4083332 7.4083335"
   version="1.1"
   id="svg5"
   inkscape:version="1.1.2 (0a00cf5339, 2022-02-04)"
   sodipodi:docname="jaimes.svg"
   xmlns:inkscape="http://www.inkscape.org/namespaces/inkscape"
   xmlns:sodipodi="http://sodipodi.sourceforge.net/DTD/sodipodi-0.dtd"
   xmlns="http://www.w3.org/2000/svg"
   xmlns:svg="http://www.w3.org/2000/svg">
  <sodipodi:namedview
     id="namedview7"
     pagecolor="#ffffff"
     bordercolor="#111111"
     borderopacity="1"
     inkscape:pageshadow="0"
     inkscape:pageopacity="0"
     inkscape:pagecheckerboard="1"
     inkscape:document-units="mm"
     showgrid="false"
     units="px"
     width="28px"
     inkscape:zoom="8"
     inkscape:cx="34.9375"
     inkscape:cy="3.1875"
     inkscape:window-width="1366"
     inkscape:window-height="691"
     inkscape:window-x="0"
     inkscape:window-y="0"
     inkscape:window-maximized="1"
     inkscape:current-layer="layer1" />
  <defs
     id="defs2" />
  <g
     inkscape:label="Calque 1"
     inkscape:groupmode="layer"
     id="layer1">
    <circle
       style="fill:#1877f2;stroke:none;stroke-width:0.271727;stroke-linecap:square;stroke-opacity:1;paint-order:stroke fill markers"
       id="path846"
       cx="3.6743548"
       cy="3.703671"
       r="3.4248896" />
    <rect
       style="fill:#ffffff;fill-rule:evenodd;stroke-width:0.25704"
       id="rect1004"
       width="1.2890396"
       height="2.0617721"
       x="1.6425745"
       y="3.0305812"
       ry="0.15648241" />
    <path
       id="rect1412"
       style="fill:#ffffff;fill-rule:evenodd;stroke-width:0.35193"
       d="m 5.0363167,1.9596121 c -0.00676,-1.493e-4 -0.013362,2.91e-4 -0.02222,5.291e-4 -0.021259,5.027e-4 -0.042775,0.00686 -0.061495,0.020153 C 4.4748118,2.3276845 3.8651732,2.7229939 3.4539853,3.079452 3.4257053,3.107736 3.4358983,3.170982 3.4358983,3.2143276 V 4.963058 c 0,0.086691 0.069891,0.1565796 0.1565796,0.1565796 h 2.1032298 c 0.08669,0 0.1561198,-0.069889 0.1565796,-0.1565796 8.202e-4,-0.1055754 0.00328,-0.1966793 0.00454,-0.3145417 -0.00103,1.466e-4 -0.00445,-0.01995 -0.00553,-0.019965 -0.00452,-6.62e-5 -0.017616,-0.00604 -0.017616,-0.00604 -0.012279,-1.9e-4 -0.022222,-0.00995 -0.022222,-0.02223 V 4.4147594 c 0,-0.012279 0.011972,-0.015457 0.02222,-0.02222 l 0.016288,-0.010747 c 0.00127,-8.467e-4 0.00886,-0.017754 0.0103,-0.01746 7.408e-4,-0.083177 -0.00119,-0.081672 -9.525e-4,-0.161249 -0.00291,0.0014 -5.292e-4,-0.025352 -0.00185,-0.028541 -0.00849,-0.02036 -0.03014,-0.030609 -0.038625,-0.034626 -0.011099,-0.00525 -0.013594,-0.00124 -0.013594,-0.01351 v -0.122473 c 0,-0.012279 0.00942,-0.021704 0.021704,-0.021704 h 0.023254 c 0.00361,0 0.00682,5.556e-4 0.00982,0.00206 -4.498e-4,-0.1029036 -0.00177,-0.1965915 -0.00465,-0.2733683 -0.00153,-0.040843 -0.033729,-0.033929 -0.033729,-0.033929 -0.00882,-0.00855 -0.034572,-0.0041 -0.034458,-0.016383 l 0.00124,-0.1331394 c 1.145e-4,-0.012279 0.012808,-0.027542 0.036973,-0.025837 0.031241,-0.013412 0.029761,-0.059883 0.029547,-0.1145542 -2.138e-4,-0.054638 0.0013,-0.104792 -5.292e-4,-0.160881 C 5.8599411,3.134756 5.782398,3.0577363 5.6957081,3.0577363 H 4.5836313 l 0.753959,-0.5353679 c 0.04992,-0.035442 0.040407,-0.026128 0.051677,-0.086299 0,0 0.023347,-0.3017412 -0.243396,-0.4351158 -0.069765,-0.034882 -0.089272,-0.040893 -0.1095546,-0.041341 z"
       sodipodi:nodetypes="scccssssccssssssccsssssscccsscscscccss" />
  </g>
</svg>
